<?xml version="1.0" encoding="UTF-8" standalone="no"?>
<!DOCTYPE svg PUBLIC "-//W3C//DTD SVG 1.1//EN"
 "http://www.w3.org/Graphics/SVG/1.1/DTD/svg11.dtd">
<!-- Generated by graphviz version 12.0.0 (20240704.0754)
 -->
<!-- Title: orphans Pages: 1 -->
<svg width="263pt" height="126pt"
 viewBox="0.00 0.00 263.00 126.00" xmlns="http://www.w3.org/2000/svg" xmlns:xlink="http://www.w3.org/1999/xlink">
<g id="graph0" class="graph" transform="scale(1 1) rotate(0) translate(4 122)">
<title>orphans</title>
<polygon fill="#ffffff" stroke="none" points="-4,4 -4,-122 259,-122 259,4 -4,4"/>
<!-- __drizzle_migrations -->
<g id="node1" class="node">
<title>__drizzle_migrations</title>
<g id="a_node1"><a xlink:href="../../tables/__drizzle_migrations.html" xlink:title="__drizzle_migrations" target="_top">
<polygon fill="#ffffff" stroke="none" points="8,-4 8,-114 247,-114 247,-4 8,-4"/>
<polygon fill="#f5f5f5" stroke="none" points="10,-90 10,-112 245,-112 245,-90 10,-90"/>
<polygon fill="none" stroke="black" points="10,-90 10,-112 245,-112 245,-90 10,-90"/>
<text text-anchor="start" x="15" y="-97.55" font-family="Helvetica,sans-Serif" font-weight="bold" font-size="11.00">__drizzle_migrations</text>
<text text-anchor="start" x="210.75" y="-96.55" font-family="Helvetica,sans-Serif" font-size="11.00">[table]</text>
<polygon fill="none" stroke="black" points="10,-68 10,-90 149,-90 149,-68 10,-68"/>
<image xlink:href="../../images/primaryKeys.png" width="11px" height="12px" preserveAspectRatio="xMinYMin meet" x="15" y="-85"/>
<text text-anchor="start" x="30" y="-74.55" font-family="Helvetica,sans-Serif" font-size="11.00">id</text>
<polygon fill="none" stroke="black" points="149,-68 149,-90 245,-90 245,-68 149,-68"/>
<text text-anchor="start" x="152" y="-74.55" font-family="Helvetica,sans-Serif" font-size="11.00">bigint unsigned[20]</text>
<polygon fill="none" stroke="black" points="10,-46 10,-68 149,-68 149,-46 10,-46"/>
<text text-anchor="start" x="30" y="-52.55" font-family="Helvetica,sans-Serif" font-size="11.00">hash</text>
<polygon fill="none" stroke="black" points="149,-46 149,-68 245,-68 245,-46 149,-46"/>
<text text-anchor="start" x="152" y="-52.55" font-family="Helvetica,sans-Serif" font-size="11.00">text[65535]</text>
<polygon fill="none" stroke="black" points="10,-24 10,-46 149,-46 149,-24 10,-24"/>
<text text-anchor="start" x="30" y="-30.55" font-family="Helvetica,sans-Serif" font-size="11.00">created_at</text>
<polygon fill="none" stroke="black" points="149,-24 149,-46 245,-46 245,-24 149,-24"/>
<text text-anchor="start" x="152" y="-30.55" font-family="Helvetica,sans-Serif" font-size="11.00">bigint[19]</text>
<polygon fill="#ffffff" stroke="none" points="10,-6 10,-24 73,-24 73,-6 10,-6"/>
<polygon fill="none" stroke="black" points="10,-6 10,-24 73,-24 73,-6 10,-6"/>
<text text-anchor="start" x="13" y="-10.55" font-family="Helvetica,sans-Serif" font-size="11.00">&lt; 0</text>
<polygon fill="#ffffff" stroke="none" points="73,-6 73,-24 149,-24 149,-6 73,-6"/>
<polygon fill="none" stroke="black" points="73,-6 73,-24 149,-24 149,-6 73,-6"/>
<text text-anchor="start" x="119" y="-10.55" font-family="Helvetica,sans-Serif" font-size="11.00">1 row</text>
<polygon fill="#ffffff" stroke="none" points="149,-6 149,-24 245,-24 245,-6 149,-6"/>
<polygon fill="none" stroke="black" points="149,-6 149,-24 245,-24 245,-6 149,-6"/>
<text text-anchor="start" x="226.25" y="-10.55" font-family="Helvetica,sans-Serif" font-size="11.00">0 &gt;</text>
<polygon fill="none" stroke="black" stroke-width="2" points="9,-5 9,-113 246,-113 246,-5 9,-5"/>
</a>
</g>
</g>
</g>
</svg>
