<?xml version="1.0" encoding="UTF-8" standalone="no"?>
<!DOCTYPE svg PUBLIC "-//W3C//DTD SVG 1.1//EN"
 "http://www.w3.org/Graphics/SVG/1.1/DTD/svg11.dtd">
<!-- Generated by graphviz version 12.0.0 (20240704.0754)
 -->
<!-- Title: oneDegreeRelationshipsDiagram Pages: 1 -->
<svg width="336pt" height="245pt"
 viewBox="0.00 0.00 336.00 245.00" xmlns="http://www.w3.org/2000/svg" xmlns:xlink="http://www.w3.org/1999/xlink">
<g id="graph0" class="graph" transform="scale(1 1) rotate(0) translate(4 241)">
<title>oneDegreeRelationshipsDiagram</title>
<polygon fill="#ffffff" stroke="none" points="-4,4 -4,-241 332,-241 332,4 -4,4"/>
<text text-anchor="middle" x="71.38" y="-5.55" font-family="Helvetica,sans-Serif" font-size="11.00">Generated by SchemaSpy</text>
<!-- user -->
<g id="node1" class="node">
<title>user</title>
<g id="a_node1"><a xlink:href="../../tables/user.html" xlink:title="user" target="_top">
<polygon fill="#ffffff" stroke="none" points="219,-87 219,-233 320,-233 320,-87 219,-87"/>
<polygon fill="#f5f5f5" stroke="none" points="219,-211 219,-233 320,-233 320,-211 219,-211"/>
<polygon fill="none" stroke="black" points="219,-211 219,-233 320,-233 320,-211 219,-211"/>
<text text-anchor="start" x="222.88" y="-218.55" font-family="Helvetica,sans-Serif" font-weight="bold" font-size="11.00">user</text>
<text text-anchor="start" x="285.75" y="-217.55" font-family="Helvetica,sans-Serif" font-size="11.00">[table]</text>
<polygon fill="none" stroke="black" points="219,-189 219,-211 320,-211 320,-189 219,-189"/>
<image xlink:href="../../images/primaryKeys.png" width="11px" height="12px" preserveAspectRatio="xMinYMin meet" x="224" y="-206"/>
<text text-anchor="start" x="239" y="-195.55" font-family="Helvetica,sans-Serif" font-size="11.00">id</text>
<polygon fill="#ffffff" stroke="none" points="219,-167 219,-189 320,-189 320,-167 219,-167"/>
<polygon fill="none" stroke="black" points="219,-167 219,-189 320,-189 320,-167 219,-167"/>
<text text-anchor="start" x="239" y="-173.55" font-family="Helvetica,sans-Serif" font-size="11.00">name</text>
<polygon fill="#ffffff" stroke="none" points="219,-145 219,-167 320,-167 320,-145 219,-145"/>
<polygon fill="none" stroke="black" points="219,-145 219,-167 320,-167 320,-145 219,-145"/>
<text text-anchor="start" x="239" y="-151.55" font-family="Helvetica,sans-Serif" font-size="11.00">email</text>
<polygon fill="#ffffff" stroke="none" points="219,-123 219,-145 320,-145 320,-123 219,-123"/>
<polygon fill="none" stroke="black" points="219,-123 219,-145 320,-145 320,-123 219,-123"/>
<image xlink:href="../../images/foreignKeys.png" width="11px" height="12px" preserveAspectRatio="xMinYMin meet" x="224" y="-140"/>
<text text-anchor="start" x="239" y="-129.55" font-family="Helvetica,sans-Serif" font-size="11.00">attribute_id</text>
<polygon fill="none" stroke="black" points="219,-105 219,-123 320,-123 320,-105 219,-105"/>
<text text-anchor="start" x="222" y="-109.55" font-family="Helvetica,sans-Serif" font-size="11.00">...</text>
<polygon fill="#ffffff" stroke="none" points="219,-87 219,-105 255,-105 255,-87 219,-87"/>
<polygon fill="none" stroke="black" points="219,-87 219,-105 255,-105 255,-87 219,-87"/>
<text text-anchor="start" x="222" y="-91.55" font-family="Helvetica,sans-Serif" font-size="11.00">&lt; 1</text>
<polygon fill="#ffffff" stroke="none" points="255,-87 255,-105 300,-105 300,-87 255,-87"/>
<polygon fill="none" stroke="black" points="255,-87 255,-105 300,-105 300,-87 255,-87"/>
<text text-anchor="start" x="264.75" y="-91.55" font-family="Helvetica,sans-Serif" font-size="11.00">0 rows</text>
<polygon fill="#ffffff" stroke="none" points="300,-87 300,-105 320,-105 320,-87 300,-87"/>
<polygon fill="none" stroke="black" points="300,-87 300,-105 320,-105 320,-87 300,-87"/>
<text text-anchor="start" x="311" y="-91.55" font-family="Helvetica,sans-Serif" font-size="11.00"> &#160;</text>
</a>
</g>
</g>
<!-- attribute -->
<g id="node2" class="node">
<title>attribute</title>
<g id="a_node2"><a xlink:href="../../tables/attribute.html" xlink:title="attribute" target="_top">
<polygon fill="#ffffff" stroke="none" points="8,-37 8,-169 170,-169 170,-37 8,-37"/>
<polygon fill="#f5f5f5" stroke="none" points="10,-145 10,-167 168,-167 168,-145 10,-145"/>
<polygon fill="none" stroke="black" points="10,-145 10,-167 168,-167 168,-145 10,-145"/>
<text text-anchor="start" x="14.88" y="-152.55" font-family="Helvetica,sans-Serif" font-weight="bold" font-size="11.00">attribute</text>
<text text-anchor="start" x="133.75" y="-151.55" font-family="Helvetica,sans-Serif" font-size="11.00">[table]</text>
<polygon fill="none" stroke="black" points="10,-123 10,-145 95,-145 95,-123 10,-123"/>
<image xlink:href="../../images/primaryKeys.png" width="11px" height="12px" preserveAspectRatio="xMinYMin meet" x="15" y="-140"/>
<text text-anchor="start" x="30" y="-129.55" font-family="Helvetica,sans-Serif" font-size="11.00">id</text>
<polygon fill="none" stroke="black" points="95,-123 95,-145 168,-145 168,-123 95,-123"/>
<text text-anchor="start" x="98" y="-129.55" font-family="Helvetica,sans-Serif" font-size="11.00">bigint[19]</text>
<polygon fill="#ffffff" stroke="none" points="10,-101 10,-123 95,-123 95,-101 10,-101"/>
<polygon fill="none" stroke="black" points="10,-101 10,-123 95,-123 95,-101 10,-101"/>
<text text-anchor="start" x="30" y="-107.55" font-family="Helvetica,sans-Serif" font-size="11.00">name</text>
<polygon fill="none" stroke="black" points="95,-101 95,-123 168,-123 168,-101 95,-101"/>
<text text-anchor="start" x="98" y="-107.55" font-family="Helvetica,sans-Serif" font-size="11.00">varchar[50]</text>
<polygon fill="none" stroke="black" points="10,-79 10,-101 95,-101 95,-79 10,-79"/>
<text text-anchor="start" x="30" y="-85.55" font-family="Helvetica,sans-Serif" font-size="11.00">created_at</text>
<polygon fill="none" stroke="black" points="95,-79 95,-101 168,-101 168,-79 95,-79"/>
<text text-anchor="start" x="97.75" y="-85.55" font-family="Helvetica,sans-Serif" font-size="11.00">timestamp[19]</text>
<polygon fill="none" stroke="black" points="10,-57 10,-79 95,-79 95,-57 10,-57"/>
<text text-anchor="start" x="30" y="-63.55" font-family="Helvetica,sans-Serif" font-size="11.00">updated_at</text>
<polygon fill="none" stroke="black" points="95,-57 95,-79 168,-79 168,-57 95,-57"/>
<text text-anchor="start" x="97.75" y="-63.55" font-family="Helvetica,sans-Serif" font-size="11.00">timestamp[19]</text>
<polygon fill="#ffffff" stroke="none" points="10,-39 10,-57 44,-57 44,-39 10,-39"/>
<polygon fill="none" stroke="black" points="10,-39 10,-57 44,-57 44,-39 10,-39"/>
<text text-anchor="start" x="13" y="-43.55" font-family="Helvetica,sans-Serif" font-size="11.00">&lt; 0</text>
<polygon fill="#ffffff" stroke="none" points="44,-39 44,-57 95,-57 95,-39 44,-39"/>
<polygon fill="none" stroke="black" points="44,-39 44,-57 95,-57 95,-39 44,-39"/>
<text text-anchor="start" x="59.75" y="-43.55" font-family="Helvetica,sans-Serif" font-size="11.00">0 rows</text>
<polygon fill="#ffffff" stroke="none" points="95,-39 95,-57 168,-57 168,-39 95,-39"/>
<polygon fill="none" stroke="black" points="95,-39 95,-57 168,-57 168,-39 95,-39"/>
<text text-anchor="start" x="149.25" y="-43.55" font-family="Helvetica,sans-Serif" font-size="11.00">1 &gt;</text>
<polygon fill="none" stroke="black" stroke-width="2" points="9,-38 9,-168 169,-168 169,-38 9,-38"/>
</a>
</g>
</g>
<!-- user&#45;&gt;attribute -->
<g id="edge1" class="edge">
<title>user:w&#45;&gt;attribute:e</title>
<path fill="none" stroke="black" d="M202.42,-134C191.71,-134 184.48,-134 169,-134"/>
<polygon fill="black" stroke="black" points="209.67,-134 217.67,-137.6 214,-134 217.33,-134 217.33,-134 217.33,-134 214,-134 217.67,-130.4 209.67,-134"/>
<ellipse fill="none" stroke="black" cx="204.75" cy="-134" rx="3.2" ry="3.2"/>
</g>
</g>
</svg>
