<?xml version="1.0" encoding="UTF-8" standalone="no"?>
<!DOCTYPE svg PUBLIC "-//W3C//DTD SVG 1.1//EN"
 "http://www.w3.org/Graphics/SVG/1.1/DTD/svg11.dtd">
<!-- Generated by graphviz version 2.43.0 (0)
 -->
<!-- Title: oneDegreeRelationshipsDiagram Pages: 1 -->
<svg width="378pt" height="245pt"
 viewBox="0.00 0.00 378.00 245.00" xmlns="http://www.w3.org/2000/svg" xmlns:xlink="http://www.w3.org/1999/xlink">
<g id="graph0" class="graph" transform="scale(1 1) rotate(0) translate(4 241)">
<title>oneDegreeRelationshipsDiagram</title>
<polygon fill="#ffffff" stroke="transparent" points="-4,4 -4,-241 374,-241 374,4 -4,4"/>
<text text-anchor="middle" x="79.5" y="-7.2" font-family="Helvetica,sans-Serif" font-size="11.00">Generated by SchemaSpy</text>
<!-- user -->
<g id="node1" class="node">
<title>user</title>
<g id="a_node1"><a xlink:href="../../tables/user.html" xlink:title="user" target="_top">
<polygon fill="#ffffff" stroke="transparent" points="246,-87 246,-233 362,-233 362,-87 246,-87"/>
<polygon fill="#f5f5f5" stroke="transparent" points="246,-211 246,-233 362,-233 362,-211 246,-211"/>
<polygon fill="none" stroke="black" points="246,-211 246,-233 362,-233 362,-211 246,-211"/>
<text text-anchor="start" x="249.5" y="-220.2" font-family="Helvetica,sans-Serif" font-weight="bold" font-size="11.00">user</text>
<text text-anchor="start" x="320" y="-219.2" font-family="Helvetica,sans-Serif" font-size="11.00">[table]</text>
<polygon fill="none" stroke="black" points="246,-189 246,-211 362,-211 362,-189 246,-189"/>
<image xlink:href="../../images/primaryKeys.png" width="11px" height="12px" preserveAspectRatio="xMinYMin meet" x="251" y="-206"/>
<text text-anchor="start" x="266" y="-197.2" font-family="Helvetica,sans-Serif" font-size="11.00">id</text>
<polygon fill="#ffffff" stroke="transparent" points="246,-167 246,-189 362,-189 362,-167 246,-167"/>
<polygon fill="none" stroke="black" points="246,-167 246,-189 362,-189 362,-167 246,-167"/>
<text text-anchor="start" x="266" y="-175.2" font-family="Helvetica,sans-Serif" font-size="11.00">name</text>
<polygon fill="#ffffff" stroke="transparent" points="246,-145 246,-167 362,-167 362,-145 246,-145"/>
<polygon fill="none" stroke="black" points="246,-145 246,-167 362,-167 362,-145 246,-145"/>
<text text-anchor="start" x="266" y="-153.2" font-family="Helvetica,sans-Serif" font-size="11.00">email</text>
<polygon fill="#ffffff" stroke="transparent" points="246,-123 246,-145 362,-145 362,-123 246,-123"/>
<polygon fill="none" stroke="black" points="246,-123 246,-145 362,-145 362,-123 246,-123"/>
<image xlink:href="../../images/foreignKeys.png" width="11px" height="12px" preserveAspectRatio="xMinYMin meet" x="251" y="-140"/>
<text text-anchor="start" x="266" y="-131.2" font-family="Helvetica,sans-Serif" font-size="11.00">attribute_id</text>
<polygon fill="none" stroke="black" points="246,-105 246,-123 362,-123 362,-105 246,-105"/>
<text text-anchor="start" x="249" y="-111.2" font-family="Helvetica,sans-Serif" font-size="11.00">...</text>
<polygon fill="#ffffff" stroke="transparent" points="246,-87 246,-105 288,-105 288,-87 246,-87"/>
<polygon fill="none" stroke="black" points="246,-87 246,-105 288,-105 288,-87 246,-87"/>
<text text-anchor="start" x="249" y="-93.2" font-family="Helvetica,sans-Serif" font-size="11.00">&lt; 1</text>
<polygon fill="#ffffff" stroke="transparent" points="288,-87 288,-105 339,-105 339,-87 288,-87"/>
<polygon fill="none" stroke="black" points="288,-87 288,-105 339,-105 339,-87 288,-87"/>
<text text-anchor="start" x="299" y="-93.2" font-family="Helvetica,sans-Serif" font-size="11.00">0 rows</text>
<polygon fill="#ffffff" stroke="transparent" points="339,-87 339,-105 362,-105 362,-87 339,-87"/>
<polygon fill="none" stroke="black" points="339,-87 339,-105 362,-105 362,-87 339,-87"/>
<text text-anchor="start" x="351" y="-93.2" font-family="Helvetica,sans-Serif" font-size="11.00"> &#160;</text>
</a>
</g>
</g>
<!-- attribute -->
<g id="node2" class="node">
<title>attribute</title>
<g id="a_node2"><a xlink:href="../../tables/attribute.html" xlink:title="attribute" target="_top">
<polygon fill="#ffffff" stroke="transparent" points="8,-37 8,-169 197,-169 197,-37 8,-37"/>
<polygon fill="#f5f5f5" stroke="transparent" points="10.5,-145 10.5,-167 195.5,-167 195.5,-145 10.5,-145"/>
<polygon fill="none" stroke="black" points="10.5,-145 10.5,-167 195.5,-167 195.5,-145 10.5,-145"/>
<text text-anchor="start" x="15.5" y="-154.2" font-family="Helvetica,sans-Serif" font-weight="bold" font-size="11.00">attribute</text>
<text text-anchor="start" x="153.5" y="-153.2" font-family="Helvetica,sans-Serif" font-size="11.00">[table]</text>
<polygon fill="none" stroke="black" points="10.5,-123 10.5,-145 107.5,-145 107.5,-123 10.5,-123"/>
<image xlink:href="../../images/primaryKeys.png" width="11px" height="12px" preserveAspectRatio="xMinYMin meet" x="15.5" y="-140"/>
<text text-anchor="start" x="30.5" y="-131.2" font-family="Helvetica,sans-Serif" font-size="11.00">id</text>
<polygon fill="none" stroke="black" points="107.5,-123 107.5,-145 195.5,-145 195.5,-123 107.5,-123"/>
<text text-anchor="start" x="110.5" y="-131.2" font-family="Helvetica,sans-Serif" font-size="11.00">bigint[19]</text>
<polygon fill="#ffffff" stroke="transparent" points="10.5,-101 10.5,-123 107.5,-123 107.5,-101 10.5,-101"/>
<polygon fill="none" stroke="black" points="10.5,-101 10.5,-123 107.5,-123 107.5,-101 10.5,-101"/>
<text text-anchor="start" x="30.5" y="-109.2" font-family="Helvetica,sans-Serif" font-size="11.00">name</text>
<polygon fill="none" stroke="black" points="107.5,-101 107.5,-123 195.5,-123 195.5,-101 107.5,-101"/>
<text text-anchor="start" x="110.5" y="-109.2" font-family="Helvetica,sans-Serif" font-size="11.00">varchar[50]</text>
<polygon fill="none" stroke="black" points="10.5,-79 10.5,-101 107.5,-101 107.5,-79 10.5,-79"/>
<text text-anchor="start" x="30.5" y="-87.2" font-family="Helvetica,sans-Serif" font-size="11.00">created_at</text>
<polygon fill="none" stroke="black" points="107.5,-79 107.5,-101 195.5,-101 195.5,-79 107.5,-79"/>
<text text-anchor="start" x="110.5" y="-87.2" font-family="Helvetica,sans-Serif" font-size="11.00">timestamp[19]</text>
<polygon fill="none" stroke="black" points="10.5,-57 10.5,-79 107.5,-79 107.5,-57 10.5,-57"/>
<text text-anchor="start" x="30.5" y="-65.2" font-family="Helvetica,sans-Serif" font-size="11.00">updated_at</text>
<polygon fill="none" stroke="black" points="107.5,-57 107.5,-79 195.5,-79 195.5,-57 107.5,-57"/>
<text text-anchor="start" x="110.5" y="-65.2" font-family="Helvetica,sans-Serif" font-size="11.00">timestamp[19]</text>
<polygon fill="#ffffff" stroke="transparent" points="10.5,-39 10.5,-57 50.5,-57 50.5,-39 10.5,-39"/>
<polygon fill="none" stroke="black" points="10.5,-39 10.5,-57 50.5,-57 50.5,-39 10.5,-39"/>
<text text-anchor="start" x="13.5" y="-45.2" font-family="Helvetica,sans-Serif" font-size="11.00">&lt; 0</text>
<polygon fill="#ffffff" stroke="transparent" points="50.5,-39 50.5,-57 107.5,-57 107.5,-39 50.5,-39"/>
<polygon fill="none" stroke="black" points="50.5,-39 50.5,-57 107.5,-57 107.5,-39 50.5,-39"/>
<text text-anchor="start" x="67.5" y="-45.2" font-family="Helvetica,sans-Serif" font-size="11.00">0 rows</text>
<polygon fill="#ffffff" stroke="transparent" points="107.5,-39 107.5,-57 195.5,-57 195.5,-39 107.5,-39"/>
<polygon fill="none" stroke="black" points="107.5,-39 107.5,-57 195.5,-57 195.5,-39 107.5,-39"/>
<text text-anchor="start" x="172.5" y="-45.2" font-family="Helvetica,sans-Serif" font-size="11.00">1 &gt;</text>
<polygon fill="none" stroke="black" stroke-width="2" points="9,-38 9,-168 196,-168 196,-38 9,-38"/>
</a>
</g>
</g>
<!-- user&#45;&gt;attribute -->
<g id="edge1" class="edge">
<title>user:w&#45;&gt;attribute:e</title>
<path fill="none" stroke="black" d="M230.28,-134C219.29,-134 212.16,-134 196.5,-134"/>
<polygon fill="black" stroke="black" points="237,-134 245,-137.6 241,-134 245,-134 245,-134 245,-134 241,-134 245,-130.4 237,-134 237,-134"/>
<ellipse fill="none" stroke="black" cx="233.8" cy="-134" rx="3.2" ry="3.2"/>
</g>
</g>
</svg>
