<?xml version="1.0" encoding="UTF-8" standalone="no"?>
<!DOCTYPE svg PUBLIC "-//W3C//DTD SVG 1.1//EN"
 "http://www.w3.org/Graphics/SVG/1.1/DTD/svg11.dtd">
<!-- Generated by graphviz version 12.0.0 (20240704.0754)
 -->
<!-- Title: oneDegreeRelationshipsDiagram Pages: 1 -->
<svg width="338pt" height="357pt"
 viewBox="0.00 0.00 338.00 357.00" xmlns="http://www.w3.org/2000/svg" xmlns:xlink="http://www.w3.org/1999/xlink">
<g id="graph0" class="graph" transform="scale(1 1) rotate(0) translate(4 353)">
<title>oneDegreeRelationshipsDiagram</title>
<polygon fill="#ffffff" stroke="none" points="-4,4 -4,-353 334,-353 334,4 -4,4"/>
<text text-anchor="middle" x="71.38" y="-5.55" font-family="Helvetica,sans-Serif" font-size="11.00">Generated by SchemaSpy</text>
<!-- user -->
<g id="node1" class="node">
<title>user</title>
<g id="a_node1"><a xlink:href="../../tables/user.html" xlink:title="user" target="_top">
<polygon fill="#ffffff" stroke="none" points="144,-37 144,-345 322,-345 322,-37 144,-37"/>
<polygon fill="#f5f5f5" stroke="none" points="146,-321 146,-343 320,-343 320,-321 146,-321"/>
<polygon fill="none" stroke="black" points="146,-321 146,-343 320,-343 320,-321 146,-321"/>
<text text-anchor="start" x="149.88" y="-328.55" font-family="Helvetica,sans-Serif" font-weight="bold" font-size="11.00">user</text>
<text text-anchor="start" x="285.75" y="-327.55" font-family="Helvetica,sans-Serif" font-size="11.00">[table]</text>
<polygon fill="none" stroke="black" points="146,-299 146,-321 247,-321 247,-299 146,-299"/>
<image xlink:href="../../images/primaryKeys.png" width="11px" height="12px" preserveAspectRatio="xMinYMin meet" x="151" y="-316"/>
<text text-anchor="start" x="166" y="-305.55" font-family="Helvetica,sans-Serif" font-size="11.00">id</text>
<polygon fill="none" stroke="black" points="247,-299 247,-321 320,-321 320,-299 247,-299"/>
<text text-anchor="start" x="250" y="-305.55" font-family="Helvetica,sans-Serif" font-size="11.00">bigint[19]</text>
<polygon fill="#ffffff" stroke="none" points="146,-277 146,-299 247,-299 247,-277 146,-277"/>
<polygon fill="none" stroke="black" points="146,-277 146,-299 247,-299 247,-277 146,-277"/>
<text text-anchor="start" x="166" y="-283.55" font-family="Helvetica,sans-Serif" font-size="11.00">name</text>
<polygon fill="none" stroke="black" points="247,-277 247,-299 320,-299 320,-277 247,-277"/>
<text text-anchor="start" x="250" y="-283.55" font-family="Helvetica,sans-Serif" font-size="11.00">varchar[50]</text>
<polygon fill="#ffffff" stroke="none" points="146,-255 146,-277 247,-277 247,-255 146,-255"/>
<polygon fill="none" stroke="black" points="146,-255 146,-277 247,-277 247,-255 146,-255"/>
<text text-anchor="start" x="166" y="-261.55" font-family="Helvetica,sans-Serif" font-size="11.00">email</text>
<polygon fill="none" stroke="black" points="247,-255 247,-277 320,-277 320,-255 247,-255"/>
<text text-anchor="start" x="250" y="-261.55" font-family="Helvetica,sans-Serif" font-size="11.00">varchar[50]</text>
<polygon fill="none" stroke="black" points="146,-233 146,-255 247,-255 247,-233 146,-233"/>
<text text-anchor="start" x="166" y="-239.55" font-family="Helvetica,sans-Serif" font-size="11.00">email_verified</text>
<polygon fill="none" stroke="black" points="247,-233 247,-255 320,-255 320,-233 247,-233"/>
<text text-anchor="start" x="250" y="-239.55" font-family="Helvetica,sans-Serif" font-size="11.00">varchar[50]</text>
<polygon fill="none" stroke="black" points="146,-211 146,-233 247,-233 247,-211 146,-211"/>
<text text-anchor="start" x="166" y="-217.55" font-family="Helvetica,sans-Serif" font-size="11.00">password</text>
<polygon fill="none" stroke="black" points="247,-211 247,-233 320,-233 320,-211 247,-211"/>
<text text-anchor="start" x="250" y="-217.55" font-family="Helvetica,sans-Serif" font-size="11.00">varchar[255]</text>
<polygon fill="none" stroke="black" points="146,-189 146,-211 247,-211 247,-189 146,-189"/>
<text text-anchor="start" x="166" y="-195.55" font-family="Helvetica,sans-Serif" font-size="11.00">birthday</text>
<polygon fill="none" stroke="black" points="247,-189 247,-211 320,-211 320,-189 247,-189"/>
<text text-anchor="start" x="250" y="-195.55" font-family="Helvetica,sans-Serif" font-size="11.00">date[10]</text>
<polygon fill="none" stroke="black" points="146,-167 146,-189 247,-189 247,-167 146,-167"/>
<text text-anchor="start" x="166" y="-173.55" font-family="Helvetica,sans-Serif" font-size="11.00">plate_number</text>
<polygon fill="none" stroke="black" points="247,-167 247,-189 320,-189 320,-167 247,-167"/>
<text text-anchor="start" x="250" y="-173.55" font-family="Helvetica,sans-Serif" font-size="11.00">varchar[50]</text>
<polygon fill="none" stroke="black" points="146,-145 146,-167 247,-167 247,-145 146,-145"/>
<text text-anchor="start" x="166" y="-151.55" font-family="Helvetica,sans-Serif" font-size="11.00">test</text>
<polygon fill="none" stroke="black" points="247,-145 247,-167 320,-167 320,-145 247,-145"/>
<text text-anchor="start" x="250" y="-151.55" font-family="Helvetica,sans-Serif" font-size="11.00">varchar[50]</text>
<polygon fill="#ffffff" stroke="none" points="146,-123 146,-145 247,-145 247,-123 146,-123"/>
<polygon fill="none" stroke="black" points="146,-123 146,-145 247,-145 247,-123 146,-123"/>
<image xlink:href="../../images/foreignKeys.png" width="11px" height="12px" preserveAspectRatio="xMinYMin meet" x="151" y="-140"/>
<text text-anchor="start" x="166" y="-129.55" font-family="Helvetica,sans-Serif" font-size="11.00">attribute_id</text>
<polygon fill="none" stroke="black" points="247,-123 247,-145 320,-145 320,-123 247,-123"/>
<text text-anchor="start" x="250" y="-129.55" font-family="Helvetica,sans-Serif" font-size="11.00">bigint[19]</text>
<polygon fill="none" stroke="black" points="146,-101 146,-123 247,-123 247,-101 146,-101"/>
<text text-anchor="start" x="166" y="-107.55" font-family="Helvetica,sans-Serif" font-size="11.00">created_at</text>
<polygon fill="none" stroke="black" points="247,-101 247,-123 320,-123 320,-101 247,-101"/>
<text text-anchor="start" x="249.75" y="-107.55" font-family="Helvetica,sans-Serif" font-size="11.00">timestamp[19]</text>
<polygon fill="none" stroke="black" points="146,-79 146,-101 247,-101 247,-79 146,-79"/>
<text text-anchor="start" x="166" y="-85.55" font-family="Helvetica,sans-Serif" font-size="11.00">updated_at</text>
<polygon fill="none" stroke="black" points="247,-79 247,-101 320,-101 320,-79 247,-79"/>
<text text-anchor="start" x="249.75" y="-85.55" font-family="Helvetica,sans-Serif" font-size="11.00">timestamp[19]</text>
<polygon fill="none" stroke="black" points="146,-57 146,-79 247,-79 247,-57 146,-57"/>
<text text-anchor="start" x="166" y="-63.55" font-family="Helvetica,sans-Serif" font-size="11.00">deleted_at</text>
<polygon fill="none" stroke="black" points="247,-57 247,-79 320,-79 320,-57 247,-57"/>
<text text-anchor="start" x="249.75" y="-63.55" font-family="Helvetica,sans-Serif" font-size="11.00">timestamp[19]</text>
<polygon fill="#ffffff" stroke="none" points="146,-39 146,-57 188,-57 188,-39 146,-39"/>
<polygon fill="none" stroke="black" points="146,-39 146,-57 188,-57 188,-39 146,-39"/>
<text text-anchor="start" x="149" y="-43.55" font-family="Helvetica,sans-Serif" font-size="11.00">&lt; 1</text>
<polygon fill="#ffffff" stroke="none" points="188,-39 188,-57 247,-57 247,-39 188,-39"/>
<polygon fill="none" stroke="black" points="188,-39 188,-57 247,-57 247,-39 188,-39"/>
<text text-anchor="start" x="211.75" y="-43.55" font-family="Helvetica,sans-Serif" font-size="11.00">0 rows</text>
<polygon fill="#ffffff" stroke="none" points="247,-39 247,-57 320,-57 320,-39 247,-39"/>
<polygon fill="none" stroke="black" points="247,-39 247,-57 320,-57 320,-39 247,-39"/>
<text text-anchor="start" x="301.25" y="-43.55" font-family="Helvetica,sans-Serif" font-size="11.00">0 &gt;</text>
<polygon fill="none" stroke="black" stroke-width="2" points="145,-38 145,-344 321,-344 321,-38 145,-38"/>
</a>
</g>
</g>
<!-- attribute -->
<g id="node2" class="node">
<title>attribute</title>
<g id="a_node2"><a xlink:href="../../tables/attribute.html" xlink:title="attribute" target="_top">
<polygon fill="#ffffff" stroke="none" points="8,-65 8,-167 95,-167 95,-65 8,-65"/>
<polygon fill="#f5f5f5" stroke="none" points="8,-145 8,-167 95,-167 95,-145 8,-145"/>
<polygon fill="none" stroke="black" points="8,-145 8,-167 95,-167 95,-145 8,-145"/>
<text text-anchor="start" x="12.88" y="-152.55" font-family="Helvetica,sans-Serif" font-weight="bold" font-size="11.00">attribute</text>
<text text-anchor="start" x="61" y="-151.55" font-family="Helvetica,sans-Serif" font-size="11.00">[table]</text>
<polygon fill="none" stroke="black" points="8,-123 8,-145 95,-145 95,-123 8,-123"/>
<image xlink:href="../../images/primaryKeys.png" width="11px" height="12px" preserveAspectRatio="xMinYMin meet" x="13" y="-140"/>
<text text-anchor="start" x="29" y="-129.55" font-family="Helvetica,sans-Serif" font-size="11.00">id</text>
<polygon fill="#ffffff" stroke="none" points="8,-101 8,-123 95,-123 95,-101 8,-101"/>
<polygon fill="none" stroke="black" points="8,-101 8,-123 95,-123 95,-101 8,-101"/>
<text text-anchor="start" x="29" y="-107.55" font-family="Helvetica,sans-Serif" font-size="11.00">name</text>
<polygon fill="none" stroke="black" points="8,-83 8,-101 95,-101 95,-83 8,-83"/>
<text text-anchor="start" x="11" y="-87.55" font-family="Helvetica,sans-Serif" font-size="11.00">...</text>
<polygon fill="#ffffff" stroke="none" points="8,-65 8,-83 28,-83 28,-65 8,-65"/>
<polygon fill="none" stroke="black" points="8,-65 8,-83 28,-83 28,-65 8,-65"/>
<text text-anchor="start" x="11" y="-69.55" font-family="Helvetica,sans-Serif" font-size="11.00"> &#160;</text>
<polygon fill="#ffffff" stroke="none" points="28,-65 28,-83 70,-83 70,-65 28,-65"/>
<polygon fill="none" stroke="black" points="28,-65 28,-83 70,-83 70,-65 28,-65"/>
<text text-anchor="start" x="34.75" y="-69.55" font-family="Helvetica,sans-Serif" font-size="11.00">0 rows</text>
<polygon fill="#ffffff" stroke="none" points="70,-65 70,-83 95,-83 95,-65 70,-65"/>
<polygon fill="none" stroke="black" points="70,-65 70,-83 95,-83 95,-65 70,-65"/>
<text text-anchor="start" x="76.25" y="-69.55" font-family="Helvetica,sans-Serif" font-size="11.00">1 &gt;</text>
</a>
</g>
</g>
<!-- user&#45;&gt;attribute -->
<g id="edge1" class="edge">
<title>user:w&#45;&gt;attribute:e</title>
<path fill="none" stroke="black" d="M129.42,-134C118.71,-134 111.48,-134 96,-134"/>
<polygon fill="black" stroke="black" points="136.67,-134 144.67,-137.6 141,-134 144.33,-134 144.33,-134 144.33,-134 141,-134 144.67,-130.4 136.67,-134"/>
<ellipse fill="none" stroke="black" cx="131.75" cy="-134" rx="3.2" ry="3.2"/>
</g>
</g>
</svg>
