<?xml version="1.0" encoding="UTF-8" standalone="no"?>
<!DOCTYPE svg PUBLIC "-//W3C//DTD SVG 1.1//EN"
 "http://www.w3.org/Graphics/SVG/1.1/DTD/svg11.dtd">
<!-- Generated by graphviz version 2.43.0 (0)
 -->
<!-- Title: oneDegreeRelationshipsDiagram Pages: 1 -->
<svg width="388pt" height="335pt"
 viewBox="0.00 0.00 388.00 335.00" xmlns="http://www.w3.org/2000/svg" xmlns:xlink="http://www.w3.org/1999/xlink">
<g id="graph0" class="graph" transform="scale(1 1) rotate(0) translate(4 331)">
<title>oneDegreeRelationshipsDiagram</title>
<polygon fill="#ffffff" stroke="transparent" points="-4,4 -4,-331 384,-331 384,4 -4,4"/>
<text text-anchor="middle" x="79.5" y="-7.2" font-family="Helvetica,sans-Serif" font-size="11.00">Generated by SchemaSpy</text>
<!-- user -->
<g id="node1" class="node">
<title>user</title>
<g id="a_node1"><a xlink:href="../../tables/user.html" xlink:title="user" target="_top">
<polygon fill="#ffffff" stroke="transparent" points="164,-37 164,-323 372,-323 372,-37 164,-37"/>
<polygon fill="#f5f5f5" stroke="transparent" points="166,-299 166,-321 370,-321 370,-299 166,-299"/>
<polygon fill="none" stroke="black" points="166,-299 166,-321 370,-321 370,-299 166,-299"/>
<text text-anchor="start" x="169.5" y="-308.2" font-family="Helvetica,sans-Serif" font-weight="bold" font-size="11.00">user</text>
<text text-anchor="start" x="328" y="-307.2" font-family="Helvetica,sans-Serif" font-size="11.00">[table]</text>
<polygon fill="none" stroke="black" points="166,-277 166,-299 282,-299 282,-277 166,-277"/>
<image xlink:href="../../images/primaryKeys.png" width="11px" height="12px" preserveAspectRatio="xMinYMin meet" x="171" y="-294"/>
<text text-anchor="start" x="186" y="-285.2" font-family="Helvetica,sans-Serif" font-size="11.00">id</text>
<polygon fill="none" stroke="black" points="282,-277 282,-299 370,-299 370,-277 282,-277"/>
<text text-anchor="start" x="285" y="-285.2" font-family="Helvetica,sans-Serif" font-size="11.00">bigint[19]</text>
<polygon fill="#ffffff" stroke="transparent" points="166,-255 166,-277 282,-277 282,-255 166,-255"/>
<polygon fill="none" stroke="black" points="166,-255 166,-277 282,-277 282,-255 166,-255"/>
<text text-anchor="start" x="186" y="-263.2" font-family="Helvetica,sans-Serif" font-size="11.00">name</text>
<polygon fill="none" stroke="black" points="282,-255 282,-277 370,-277 370,-255 282,-255"/>
<text text-anchor="start" x="285" y="-263.2" font-family="Helvetica,sans-Serif" font-size="11.00">varchar[50]</text>
<polygon fill="#ffffff" stroke="transparent" points="166,-233 166,-255 282,-255 282,-233 166,-233"/>
<polygon fill="none" stroke="black" points="166,-233 166,-255 282,-255 282,-233 166,-233"/>
<text text-anchor="start" x="186" y="-241.2" font-family="Helvetica,sans-Serif" font-size="11.00">email</text>
<polygon fill="none" stroke="black" points="282,-233 282,-255 370,-255 370,-233 282,-233"/>
<text text-anchor="start" x="285" y="-241.2" font-family="Helvetica,sans-Serif" font-size="11.00">varchar[50]</text>
<polygon fill="none" stroke="black" points="166,-211 166,-233 282,-233 282,-211 166,-211"/>
<text text-anchor="start" x="186" y="-219.2" font-family="Helvetica,sans-Serif" font-size="11.00">email_verified</text>
<polygon fill="none" stroke="black" points="282,-211 282,-233 370,-233 370,-211 282,-211"/>
<text text-anchor="start" x="285" y="-219.2" font-family="Helvetica,sans-Serif" font-size="11.00">varchar[50]</text>
<polygon fill="none" stroke="black" points="166,-189 166,-211 282,-211 282,-189 166,-189"/>
<text text-anchor="start" x="186" y="-197.2" font-family="Helvetica,sans-Serif" font-size="11.00">password</text>
<polygon fill="none" stroke="black" points="282,-189 282,-211 370,-211 370,-189 282,-189"/>
<text text-anchor="start" x="285" y="-197.2" font-family="Helvetica,sans-Serif" font-size="11.00">varchar[255]</text>
<polygon fill="none" stroke="black" points="166,-167 166,-189 282,-189 282,-167 166,-167"/>
<text text-anchor="start" x="186" y="-175.2" font-family="Helvetica,sans-Serif" font-size="11.00">birthday</text>
<polygon fill="none" stroke="black" points="282,-167 282,-189 370,-189 370,-167 282,-167"/>
<text text-anchor="start" x="285" y="-175.2" font-family="Helvetica,sans-Serif" font-size="11.00">date[10]</text>
<polygon fill="none" stroke="black" points="166,-145 166,-167 282,-167 282,-145 166,-145"/>
<text text-anchor="start" x="186" y="-153.2" font-family="Helvetica,sans-Serif" font-size="11.00">plate_number</text>
<polygon fill="none" stroke="black" points="282,-145 282,-167 370,-167 370,-145 282,-145"/>
<text text-anchor="start" x="285" y="-153.2" font-family="Helvetica,sans-Serif" font-size="11.00">varchar[50]</text>
<polygon fill="#ffffff" stroke="transparent" points="166,-123 166,-145 282,-145 282,-123 166,-123"/>
<polygon fill="none" stroke="black" points="166,-123 166,-145 282,-145 282,-123 166,-123"/>
<image xlink:href="../../images/foreignKeys.png" width="11px" height="12px" preserveAspectRatio="xMinYMin meet" x="171" y="-140"/>
<text text-anchor="start" x="186" y="-131.2" font-family="Helvetica,sans-Serif" font-size="11.00">attribute_id</text>
<polygon fill="none" stroke="black" points="282,-123 282,-145 370,-145 370,-123 282,-123"/>
<text text-anchor="start" x="285" y="-131.2" font-family="Helvetica,sans-Serif" font-size="11.00">bigint[19]</text>
<polygon fill="none" stroke="black" points="166,-101 166,-123 282,-123 282,-101 166,-101"/>
<text text-anchor="start" x="186" y="-109.2" font-family="Helvetica,sans-Serif" font-size="11.00">created_at</text>
<polygon fill="none" stroke="black" points="282,-101 282,-123 370,-123 370,-101 282,-101"/>
<text text-anchor="start" x="285" y="-109.2" font-family="Helvetica,sans-Serif" font-size="11.00">timestamp[19]</text>
<polygon fill="none" stroke="black" points="166,-79 166,-101 282,-101 282,-79 166,-79"/>
<text text-anchor="start" x="186" y="-87.2" font-family="Helvetica,sans-Serif" font-size="11.00">updated_at</text>
<polygon fill="none" stroke="black" points="282,-79 282,-101 370,-101 370,-79 282,-79"/>
<text text-anchor="start" x="285" y="-87.2" font-family="Helvetica,sans-Serif" font-size="11.00">timestamp[19]</text>
<polygon fill="none" stroke="black" points="166,-57 166,-79 282,-79 282,-57 166,-57"/>
<text text-anchor="start" x="186" y="-65.2" font-family="Helvetica,sans-Serif" font-size="11.00">deleted_at</text>
<polygon fill="none" stroke="black" points="282,-57 282,-79 370,-79 370,-57 282,-57"/>
<text text-anchor="start" x="285" y="-65.2" font-family="Helvetica,sans-Serif" font-size="11.00">timestamp[19]</text>
<polygon fill="#ffffff" stroke="transparent" points="166,-39 166,-57 215,-57 215,-39 166,-39"/>
<polygon fill="none" stroke="black" points="166,-39 166,-57 215,-57 215,-39 166,-39"/>
<text text-anchor="start" x="169" y="-45.2" font-family="Helvetica,sans-Serif" font-size="11.00">&lt; 1</text>
<polygon fill="#ffffff" stroke="transparent" points="215,-39 215,-57 282,-57 282,-39 215,-39"/>
<polygon fill="none" stroke="black" points="215,-39 215,-57 282,-57 282,-39 215,-39"/>
<text text-anchor="start" x="242" y="-45.2" font-family="Helvetica,sans-Serif" font-size="11.00">0 rows</text>
<polygon fill="#ffffff" stroke="transparent" points="282,-39 282,-57 370,-57 370,-39 282,-39"/>
<polygon fill="none" stroke="black" points="282,-39 282,-57 370,-57 370,-39 282,-39"/>
<text text-anchor="start" x="347" y="-45.2" font-family="Helvetica,sans-Serif" font-size="11.00">0 &gt;</text>
<polygon fill="none" stroke="black" stroke-width="2" points="165,-38 165,-322 371,-322 371,-38 165,-38"/>
</a>
</g>
</g>
<!-- attribute -->
<g id="node2" class="node">
<title>attribute</title>
<g id="a_node2"><a xlink:href="../../tables/attribute.html" xlink:title="attribute" target="_top">
<polygon fill="#ffffff" stroke="transparent" points="8,-65 8,-167 115,-167 115,-65 8,-65"/>
<polygon fill="#f5f5f5" stroke="transparent" points="8.5,-145 8.5,-167 115.5,-167 115.5,-145 8.5,-145"/>
<polygon fill="none" stroke="black" points="8.5,-145 8.5,-167 115.5,-167 115.5,-145 8.5,-145"/>
<text text-anchor="start" x="13.5" y="-154.2" font-family="Helvetica,sans-Serif" font-weight="bold" font-size="11.00">attribute</text>
<text text-anchor="start" x="73.5" y="-153.2" font-family="Helvetica,sans-Serif" font-size="11.00">[table]</text>
<polygon fill="none" stroke="black" points="8.5,-123 8.5,-145 115.5,-145 115.5,-123 8.5,-123"/>
<image xlink:href="../../images/primaryKeys.png" width="11px" height="12px" preserveAspectRatio="xMinYMin meet" x="13.5" y="-140"/>
<text text-anchor="start" x="33.5" y="-131.2" font-family="Helvetica,sans-Serif" font-size="11.00">id</text>
<polygon fill="#ffffff" stroke="transparent" points="8.5,-101 8.5,-123 115.5,-123 115.5,-101 8.5,-101"/>
<polygon fill="none" stroke="black" points="8.5,-101 8.5,-123 115.5,-123 115.5,-101 8.5,-101"/>
<text text-anchor="start" x="33.5" y="-109.2" font-family="Helvetica,sans-Serif" font-size="11.00">name</text>
<polygon fill="none" stroke="black" points="8.5,-83 8.5,-101 115.5,-101 115.5,-83 8.5,-83"/>
<text text-anchor="start" x="11.5" y="-89.2" font-family="Helvetica,sans-Serif" font-size="11.00">...</text>
<polygon fill="#ffffff" stroke="transparent" points="8.5,-65 8.5,-83 34.5,-83 34.5,-65 8.5,-65"/>
<polygon fill="none" stroke="black" points="8.5,-65 8.5,-83 34.5,-83 34.5,-65 8.5,-65"/>
<text text-anchor="start" x="11.5" y="-71.2" font-family="Helvetica,sans-Serif" font-size="11.00"> &#160;</text>
<polygon fill="#ffffff" stroke="transparent" points="34.5,-65 34.5,-83 83.5,-83 83.5,-65 34.5,-65"/>
<polygon fill="none" stroke="black" points="34.5,-65 34.5,-83 83.5,-83 83.5,-65 34.5,-65"/>
<text text-anchor="start" x="43.5" y="-71.2" font-family="Helvetica,sans-Serif" font-size="11.00">0 rows</text>
<polygon fill="#ffffff" stroke="transparent" points="83.5,-65 83.5,-83 115.5,-83 115.5,-65 83.5,-65"/>
<polygon fill="none" stroke="black" points="83.5,-65 83.5,-83 115.5,-83 115.5,-65 83.5,-65"/>
<text text-anchor="start" x="92.5" y="-71.2" font-family="Helvetica,sans-Serif" font-size="11.00">1 &gt;</text>
</a>
</g>
</g>
<!-- user&#45;&gt;attribute -->
<g id="edge1" class="edge">
<title>user:w&#45;&gt;attribute:e</title>
<path fill="none" stroke="black" d="M150.28,-134C139.29,-134 132.16,-134 116.5,-134"/>
<polygon fill="black" stroke="black" points="157,-134 165,-137.6 161,-134 165,-134 165,-134 165,-134 161,-134 165,-130.4 157,-134 157,-134"/>
<ellipse fill="none" stroke="black" cx="153.8" cy="-134" rx="3.2" ry="3.2"/>
</g>
</g>
</svg>
