<?xml version="1.0" encoding="UTF-8" standalone="no"?>
<!DOCTYPE svg PUBLIC "-//W3C//DTD SVG 1.1//EN"
 "http://www.w3.org/Graphics/SVG/1.1/DTD/svg11.dtd">
<!-- Generated by graphviz version 2.43.0 (0)
 -->
<!-- Title: compactRelationshipsDiagram Pages: 1 -->
<svg width="296pt" height="217pt"
 viewBox="0.00 0.00 296.00 217.00" xmlns="http://www.w3.org/2000/svg" xmlns:xlink="http://www.w3.org/1999/xlink">
<g id="graph0" class="graph" transform="scale(1 1) rotate(0) translate(4 213)">
<title>compactRelationshipsDiagram</title>
<polygon fill="#ffffff" stroke="transparent" points="-4,4 -4,-213 292,-213 292,4 -4,4"/>
<text text-anchor="middle" x="79.5" y="-7.2" font-family="Helvetica,sans-Serif" font-size="11.00">Generated by SchemaSpy</text>
<!-- attribute -->
<g id="node1" class="node">
<title>attribute</title>
<g id="a_node1"><a xlink:href="../../tables/attribute.html" xlink:title="attribute" target="_top">
<polygon fill="#ffffff" stroke="transparent" points="8,-37 8,-139 115,-139 115,-37 8,-37"/>
<polygon fill="#f5f5f5" stroke="transparent" points="8.5,-117 8.5,-139 115.5,-139 115.5,-117 8.5,-117"/>
<polygon fill="none" stroke="black" points="8.5,-117 8.5,-139 115.5,-139 115.5,-117 8.5,-117"/>
<text text-anchor="start" x="13.5" y="-126.2" font-family="Helvetica,sans-Serif" font-weight="bold" font-size="11.00">attribute</text>
<text text-anchor="start" x="73.5" y="-125.2" font-family="Helvetica,sans-Serif" font-size="11.00">[table]</text>
<polygon fill="none" stroke="black" points="8.5,-95 8.5,-117 115.5,-117 115.5,-95 8.5,-95"/>
<image xlink:href="../../images/primaryKeys.png" width="11px" height="12px" preserveAspectRatio="xMinYMin meet" x="13.5" y="-112"/>
<text text-anchor="start" x="33.5" y="-103.2" font-family="Helvetica,sans-Serif" font-size="11.00">id</text>
<polygon fill="#ffffff" stroke="transparent" points="8.5,-73 8.5,-95 115.5,-95 115.5,-73 8.5,-73"/>
<polygon fill="none" stroke="black" points="8.5,-73 8.5,-95 115.5,-95 115.5,-73 8.5,-73"/>
<text text-anchor="start" x="33.5" y="-81.2" font-family="Helvetica,sans-Serif" font-size="11.00">name</text>
<polygon fill="none" stroke="black" points="8.5,-55 8.5,-73 115.5,-73 115.5,-55 8.5,-55"/>
<text text-anchor="start" x="11.5" y="-61.2" font-family="Helvetica,sans-Serif" font-size="11.00">...</text>
<polygon fill="#ffffff" stroke="transparent" points="8.5,-37 8.5,-55 34.5,-55 34.5,-37 8.5,-37"/>
<polygon fill="none" stroke="black" points="8.5,-37 8.5,-55 34.5,-55 34.5,-37 8.5,-37"/>
<text text-anchor="start" x="11.5" y="-43.2" font-family="Helvetica,sans-Serif" font-size="11.00"> &#160;</text>
<polygon fill="#ffffff" stroke="transparent" points="34.5,-37 34.5,-55 83.5,-55 83.5,-37 34.5,-37"/>
<polygon fill="none" stroke="black" points="34.5,-37 34.5,-55 83.5,-55 83.5,-37 34.5,-37"/>
<text text-anchor="start" x="43.5" y="-43.2" font-family="Helvetica,sans-Serif" font-size="11.00">0 rows</text>
<polygon fill="#ffffff" stroke="transparent" points="83.5,-37 83.5,-55 115.5,-55 115.5,-37 83.5,-37"/>
<polygon fill="none" stroke="black" points="83.5,-37 83.5,-55 115.5,-55 115.5,-37 83.5,-37"/>
<text text-anchor="start" x="92.5" y="-43.2" font-family="Helvetica,sans-Serif" font-size="11.00">1 &gt;</text>
</a>
</g>
</g>
<!-- user -->
<g id="node2" class="node">
<title>user</title>
<g id="a_node2"><a xlink:href="../../tables/user.html" xlink:title="user" target="_top">
<polygon fill="#ffffff" stroke="transparent" points="164,-59 164,-205 280,-205 280,-59 164,-59"/>
<polygon fill="#f5f5f5" stroke="transparent" points="164,-183 164,-205 280,-205 280,-183 164,-183"/>
<polygon fill="none" stroke="black" points="164,-183 164,-205 280,-205 280,-183 164,-183"/>
<text text-anchor="start" x="167.5" y="-192.2" font-family="Helvetica,sans-Serif" font-weight="bold" font-size="11.00">user</text>
<text text-anchor="start" x="238" y="-191.2" font-family="Helvetica,sans-Serif" font-size="11.00">[table]</text>
<polygon fill="none" stroke="black" points="164,-161 164,-183 280,-183 280,-161 164,-161"/>
<image xlink:href="../../images/primaryKeys.png" width="11px" height="12px" preserveAspectRatio="xMinYMin meet" x="169" y="-178"/>
<text text-anchor="start" x="184" y="-169.2" font-family="Helvetica,sans-Serif" font-size="11.00">id</text>
<polygon fill="#ffffff" stroke="transparent" points="164,-139 164,-161 280,-161 280,-139 164,-139"/>
<polygon fill="none" stroke="black" points="164,-139 164,-161 280,-161 280,-139 164,-139"/>
<text text-anchor="start" x="184" y="-147.2" font-family="Helvetica,sans-Serif" font-size="11.00">name</text>
<polygon fill="#ffffff" stroke="transparent" points="164,-117 164,-139 280,-139 280,-117 164,-117"/>
<polygon fill="none" stroke="black" points="164,-117 164,-139 280,-139 280,-117 164,-117"/>
<text text-anchor="start" x="184" y="-125.2" font-family="Helvetica,sans-Serif" font-size="11.00">email</text>
<polygon fill="#ffffff" stroke="transparent" points="164,-95 164,-117 280,-117 280,-95 164,-95"/>
<polygon fill="none" stroke="black" points="164,-95 164,-117 280,-117 280,-95 164,-95"/>
<image xlink:href="../../images/foreignKeys.png" width="11px" height="12px" preserveAspectRatio="xMinYMin meet" x="169" y="-112"/>
<text text-anchor="start" x="184" y="-103.2" font-family="Helvetica,sans-Serif" font-size="11.00">attribute_id</text>
<polygon fill="none" stroke="black" points="164,-77 164,-95 280,-95 280,-77 164,-77"/>
<text text-anchor="start" x="167" y="-83.2" font-family="Helvetica,sans-Serif" font-size="11.00">...</text>
<polygon fill="#ffffff" stroke="transparent" points="164,-59 164,-77 206,-77 206,-59 164,-59"/>
<polygon fill="none" stroke="black" points="164,-59 164,-77 206,-77 206,-59 164,-59"/>
<text text-anchor="start" x="167" y="-65.2" font-family="Helvetica,sans-Serif" font-size="11.00">&lt; 1</text>
<polygon fill="#ffffff" stroke="transparent" points="206,-59 206,-77 257,-77 257,-59 206,-59"/>
<polygon fill="none" stroke="black" points="206,-59 206,-77 257,-77 257,-59 206,-59"/>
<text text-anchor="start" x="217" y="-65.2" font-family="Helvetica,sans-Serif" font-size="11.00">0 rows</text>
<polygon fill="#ffffff" stroke="transparent" points="257,-59 257,-77 280,-77 280,-59 257,-59"/>
<polygon fill="none" stroke="black" points="257,-59 257,-77 280,-77 280,-59 257,-59"/>
<text text-anchor="start" x="269" y="-65.2" font-family="Helvetica,sans-Serif" font-size="11.00"> &#160;</text>
</a>
</g>
</g>
<!-- user&#45;&gt;attribute -->
<g id="edge1" class="edge">
<title>user:w&#45;&gt;attribute:e</title>
<path fill="none" stroke="black" d="M148.55,-106C138.2,-106 131.35,-106 116.5,-106"/>
<polygon fill="black" stroke="black" points="155,-106 163,-109.6 159,-106 163,-106 163,-106 163,-106 159,-106 163,-102.4 155,-106 155,-106"/>
<ellipse fill="none" stroke="black" cx="151.8" cy="-106" rx="3.2" ry="3.2"/>
</g>
</g>
</svg>
