<?xml version="1.0" encoding="UTF-8" standalone="no"?>
<!DOCTYPE svg PUBLIC "-//W3C//DTD SVG 1.1//EN"
 "http://www.w3.org/Graphics/SVG/1.1/DTD/svg11.dtd">
<!-- Generated by graphviz version 12.0.0 (20240704.0754)
 -->
<!-- Title: compactRelationshipsDiagram Pages: 1 -->
<svg width="261pt" height="217pt"
 viewBox="0.00 0.00 261.00 217.00" xmlns="http://www.w3.org/2000/svg" xmlns:xlink="http://www.w3.org/1999/xlink">
<g id="graph0" class="graph" transform="scale(1 1) rotate(0) translate(4 213)">
<title>compactRelationshipsDiagram</title>
<polygon fill="#ffffff" stroke="none" points="-4,4 -4,-213 257,-213 257,4 -4,4"/>
<text text-anchor="middle" x="71.38" y="-5.55" font-family="Helvetica,sans-Serif" font-size="11.00">Generated by SchemaSpy</text>
<!-- attribute -->
<g id="node1" class="node">
<title>attribute</title>
<g id="a_node1"><a xlink:href="../../tables/attribute.html" xlink:title="attribute" target="_top">
<polygon fill="#ffffff" stroke="none" points="8,-37 8,-139 95,-139 95,-37 8,-37"/>
<polygon fill="#f5f5f5" stroke="none" points="8,-117 8,-139 95,-139 95,-117 8,-117"/>
<polygon fill="none" stroke="black" points="8,-117 8,-139 95,-139 95,-117 8,-117"/>
<text text-anchor="start" x="12.88" y="-124.55" font-family="Helvetica,sans-Serif" font-weight="bold" font-size="11.00">attribute</text>
<text text-anchor="start" x="61" y="-123.55" font-family="Helvetica,sans-Serif" font-size="11.00">[table]</text>
<polygon fill="none" stroke="black" points="8,-95 8,-117 95,-117 95,-95 8,-95"/>
<image xlink:href="../../images/primaryKeys.png" width="11px" height="12px" preserveAspectRatio="xMinYMin meet" x="13" y="-112"/>
<text text-anchor="start" x="29" y="-101.55" font-family="Helvetica,sans-Serif" font-size="11.00">id</text>
<polygon fill="#ffffff" stroke="none" points="8,-73 8,-95 95,-95 95,-73 8,-73"/>
<polygon fill="none" stroke="black" points="8,-73 8,-95 95,-95 95,-73 8,-73"/>
<text text-anchor="start" x="29" y="-79.55" font-family="Helvetica,sans-Serif" font-size="11.00">name</text>
<polygon fill="none" stroke="black" points="8,-55 8,-73 95,-73 95,-55 8,-55"/>
<text text-anchor="start" x="11" y="-59.55" font-family="Helvetica,sans-Serif" font-size="11.00">...</text>
<polygon fill="#ffffff" stroke="none" points="8,-37 8,-55 28,-55 28,-37 8,-37"/>
<polygon fill="none" stroke="black" points="8,-37 8,-55 28,-55 28,-37 8,-37"/>
<text text-anchor="start" x="11" y="-41.55" font-family="Helvetica,sans-Serif" font-size="11.00"> &#160;</text>
<polygon fill="#ffffff" stroke="none" points="28,-37 28,-55 70,-55 70,-37 28,-37"/>
<polygon fill="none" stroke="black" points="28,-37 28,-55 70,-55 70,-37 28,-37"/>
<text text-anchor="start" x="34.75" y="-41.55" font-family="Helvetica,sans-Serif" font-size="11.00">0 rows</text>
<polygon fill="#ffffff" stroke="none" points="70,-37 70,-55 95,-55 95,-37 70,-37"/>
<polygon fill="none" stroke="black" points="70,-37 70,-55 95,-55 95,-37 70,-37"/>
<text text-anchor="start" x="76.25" y="-41.55" font-family="Helvetica,sans-Serif" font-size="11.00">1 &gt;</text>
</a>
</g>
</g>
<!-- user -->
<g id="node2" class="node">
<title>user</title>
<g id="a_node2"><a xlink:href="../../tables/user.html" xlink:title="user" target="_top">
<polygon fill="#ffffff" stroke="none" points="144,-59 144,-205 245,-205 245,-59 144,-59"/>
<polygon fill="#f5f5f5" stroke="none" points="144,-183 144,-205 245,-205 245,-183 144,-183"/>
<polygon fill="none" stroke="black" points="144,-183 144,-205 245,-205 245,-183 144,-183"/>
<text text-anchor="start" x="147.88" y="-190.55" font-family="Helvetica,sans-Serif" font-weight="bold" font-size="11.00">user</text>
<text text-anchor="start" x="210.75" y="-189.55" font-family="Helvetica,sans-Serif" font-size="11.00">[table]</text>
<polygon fill="none" stroke="black" points="144,-161 144,-183 245,-183 245,-161 144,-161"/>
<image xlink:href="../../images/primaryKeys.png" width="11px" height="12px" preserveAspectRatio="xMinYMin meet" x="149" y="-178"/>
<text text-anchor="start" x="164" y="-167.55" font-family="Helvetica,sans-Serif" font-size="11.00">id</text>
<polygon fill="#ffffff" stroke="none" points="144,-139 144,-161 245,-161 245,-139 144,-139"/>
<polygon fill="none" stroke="black" points="144,-139 144,-161 245,-161 245,-139 144,-139"/>
<text text-anchor="start" x="164" y="-145.55" font-family="Helvetica,sans-Serif" font-size="11.00">name</text>
<polygon fill="#ffffff" stroke="none" points="144,-117 144,-139 245,-139 245,-117 144,-117"/>
<polygon fill="none" stroke="black" points="144,-117 144,-139 245,-139 245,-117 144,-117"/>
<text text-anchor="start" x="164" y="-123.55" font-family="Helvetica,sans-Serif" font-size="11.00">email</text>
<polygon fill="#ffffff" stroke="none" points="144,-95 144,-117 245,-117 245,-95 144,-95"/>
<polygon fill="none" stroke="black" points="144,-95 144,-117 245,-117 245,-95 144,-95"/>
<image xlink:href="../../images/foreignKeys.png" width="11px" height="12px" preserveAspectRatio="xMinYMin meet" x="149" y="-112"/>
<text text-anchor="start" x="164" y="-101.55" font-family="Helvetica,sans-Serif" font-size="11.00">attribute_id</text>
<polygon fill="none" stroke="black" points="144,-77 144,-95 245,-95 245,-77 144,-77"/>
<text text-anchor="start" x="147" y="-81.55" font-family="Helvetica,sans-Serif" font-size="11.00">...</text>
<polygon fill="#ffffff" stroke="none" points="144,-59 144,-77 180,-77 180,-59 144,-59"/>
<polygon fill="none" stroke="black" points="144,-59 144,-77 180,-77 180,-59 144,-59"/>
<text text-anchor="start" x="147" y="-63.55" font-family="Helvetica,sans-Serif" font-size="11.00">&lt; 1</text>
<polygon fill="#ffffff" stroke="none" points="180,-59 180,-77 225,-77 225,-59 180,-59"/>
<polygon fill="none" stroke="black" points="180,-59 180,-77 225,-77 225,-59 180,-59"/>
<text text-anchor="start" x="189.75" y="-63.55" font-family="Helvetica,sans-Serif" font-size="11.00">0 rows</text>
<polygon fill="#ffffff" stroke="none" points="225,-59 225,-77 245,-77 245,-59 225,-59"/>
<polygon fill="none" stroke="black" points="225,-59 225,-77 245,-77 245,-59 225,-59"/>
<text text-anchor="start" x="236" y="-63.55" font-family="Helvetica,sans-Serif" font-size="11.00"> &#160;</text>
</a>
</g>
</g>
<!-- user&#45;&gt;attribute -->
<g id="edge1" class="edge">
<title>user:w&#45;&gt;attribute:e</title>
<path fill="none" stroke="black" d="M127.38,-106C117.47,-106 110.52,-106 96,-106"/>
<polygon fill="black" stroke="black" points="134.67,-106 142.67,-109.6 139,-106 142.33,-106 142.33,-106 142.33,-106 139,-106 142.67,-102.4 134.67,-106"/>
<ellipse fill="none" stroke="black" cx="129.75" cy="-106" rx="3.2" ry="3.2"/>
</g>
</g>
</svg>
