<?xml version="1.0" encoding="UTF-8" standalone="no"?>
<!DOCTYPE svg PUBLIC "-//W3C//DTD SVG 1.1//EN"
 "http://www.w3.org/Graphics/SVG/1.1/DTD/svg11.dtd">
<!-- Generated by graphviz version 2.43.0 (0)
 -->
<!-- Title: largeRelationshipsDiagram Pages: 1 -->
<svg width="296pt" height="353pt"
 viewBox="0.00 0.00 296.00 353.00" xmlns="http://www.w3.org/2000/svg" xmlns:xlink="http://www.w3.org/1999/xlink">
<g id="graph0" class="graph" transform="scale(1 1) rotate(0) translate(4 349)">
<title>largeRelationshipsDiagram</title>
<polygon fill="#ffffff" stroke="transparent" points="-4,4 -4,-349 292,-349 292,4 -4,4"/>
<text text-anchor="middle" x="79.5" y="-7.2" font-family="Helvetica,sans-Serif" font-size="11.00">Generated by SchemaSpy</text>
<!-- attribute -->
<g id="node1" class="node">
<title>attribute</title>
<g id="a_node1"><a xlink:href="../../tables/attribute.html" xlink:title="attribute" target="_top">
<polygon fill="#ffffff" stroke="transparent" points="8,-37 8,-165 115,-165 115,-37 8,-37"/>
<polygon fill="#f5f5f5" stroke="transparent" points="8.5,-143 8.5,-165 115.5,-165 115.5,-143 8.5,-143"/>
<polygon fill="none" stroke="black" points="8.5,-143 8.5,-165 115.5,-165 115.5,-143 8.5,-143"/>
<text text-anchor="start" x="13.5" y="-152.2" font-family="Helvetica,sans-Serif" font-weight="bold" font-size="11.00">attribute</text>
<text text-anchor="start" x="73.5" y="-151.2" font-family="Helvetica,sans-Serif" font-size="11.00">[table]</text>
<polygon fill="none" stroke="black" points="8.5,-121 8.5,-143 115.5,-143 115.5,-121 8.5,-121"/>
<image xlink:href="../../images/primaryKeys.png" width="11px" height="12px" preserveAspectRatio="xMinYMin meet" x="13.5" y="-138"/>
<text text-anchor="start" x="33.5" y="-129.2" font-family="Helvetica,sans-Serif" font-size="11.00">id</text>
<polygon fill="#ffffff" stroke="transparent" points="8.5,-99 8.5,-121 115.5,-121 115.5,-99 8.5,-99"/>
<polygon fill="none" stroke="black" points="8.5,-99 8.5,-121 115.5,-121 115.5,-99 8.5,-99"/>
<text text-anchor="start" x="33.5" y="-107.2" font-family="Helvetica,sans-Serif" font-size="11.00">name</text>
<polygon fill="none" stroke="black" points="8.5,-77 8.5,-99 115.5,-99 115.5,-77 8.5,-77"/>
<text text-anchor="start" x="33.5" y="-85.2" font-family="Helvetica,sans-Serif" font-size="11.00">created_at</text>
<polygon fill="none" stroke="black" points="8.5,-55 8.5,-77 115.5,-77 115.5,-55 8.5,-55"/>
<text text-anchor="start" x="33.5" y="-63.2" font-family="Helvetica,sans-Serif" font-size="11.00">updated_at</text>
<polygon fill="#ffffff" stroke="transparent" points="8.5,-37 8.5,-55 34.5,-55 34.5,-37 8.5,-37"/>
<polygon fill="none" stroke="black" points="8.5,-37 8.5,-55 34.5,-55 34.5,-37 8.5,-37"/>
<text text-anchor="start" x="11.5" y="-43.2" font-family="Helvetica,sans-Serif" font-size="11.00"> &#160;</text>
<polygon fill="#ffffff" stroke="transparent" points="34.5,-37 34.5,-55 83.5,-55 83.5,-37 34.5,-37"/>
<polygon fill="none" stroke="black" points="34.5,-37 34.5,-55 83.5,-55 83.5,-37 34.5,-37"/>
<text text-anchor="start" x="43.5" y="-43.2" font-family="Helvetica,sans-Serif" font-size="11.00">0 rows</text>
<polygon fill="#ffffff" stroke="transparent" points="83.5,-37 83.5,-55 115.5,-55 115.5,-37 83.5,-37"/>
<polygon fill="none" stroke="black" points="83.5,-37 83.5,-55 115.5,-55 115.5,-37 83.5,-37"/>
<text text-anchor="start" x="92.5" y="-43.2" font-family="Helvetica,sans-Serif" font-size="11.00">1 &gt;</text>
</a>
</g>
</g>
<!-- user -->
<g id="node2" class="node">
<title>user</title>
<g id="a_node2"><a xlink:href="../../tables/user.html" xlink:title="user" target="_top">
<polygon fill="#ffffff" stroke="transparent" points="164,-37 164,-341 280,-341 280,-37 164,-37"/>
<polygon fill="#f5f5f5" stroke="transparent" points="164,-319 164,-341 280,-341 280,-319 164,-319"/>
<polygon fill="none" stroke="black" points="164,-319 164,-341 280,-341 280,-319 164,-319"/>
<text text-anchor="start" x="167.5" y="-328.2" font-family="Helvetica,sans-Serif" font-weight="bold" font-size="11.00">user</text>
<text text-anchor="start" x="238" y="-327.2" font-family="Helvetica,sans-Serif" font-size="11.00">[table]</text>
<polygon fill="none" stroke="black" points="164,-297 164,-319 280,-319 280,-297 164,-297"/>
<image xlink:href="../../images/primaryKeys.png" width="11px" height="12px" preserveAspectRatio="xMinYMin meet" x="169" y="-314"/>
<text text-anchor="start" x="184" y="-305.2" font-family="Helvetica,sans-Serif" font-size="11.00">id</text>
<polygon fill="#ffffff" stroke="transparent" points="164,-275 164,-297 280,-297 280,-275 164,-275"/>
<polygon fill="none" stroke="black" points="164,-275 164,-297 280,-297 280,-275 164,-275"/>
<text text-anchor="start" x="184" y="-283.2" font-family="Helvetica,sans-Serif" font-size="11.00">name</text>
<polygon fill="#ffffff" stroke="transparent" points="164,-253 164,-275 280,-275 280,-253 164,-253"/>
<polygon fill="none" stroke="black" points="164,-253 164,-275 280,-275 280,-253 164,-253"/>
<text text-anchor="start" x="184" y="-261.2" font-family="Helvetica,sans-Serif" font-size="11.00">email</text>
<polygon fill="none" stroke="black" points="164,-231 164,-253 280,-253 280,-231 164,-231"/>
<text text-anchor="start" x="184" y="-239.2" font-family="Helvetica,sans-Serif" font-size="11.00">email_verified</text>
<polygon fill="none" stroke="black" points="164,-209 164,-231 280,-231 280,-209 164,-209"/>
<text text-anchor="start" x="184" y="-217.2" font-family="Helvetica,sans-Serif" font-size="11.00">password</text>
<polygon fill="none" stroke="black" points="164,-187 164,-209 280,-209 280,-187 164,-187"/>
<text text-anchor="start" x="184" y="-195.2" font-family="Helvetica,sans-Serif" font-size="11.00">birthday</text>
<polygon fill="none" stroke="black" points="164,-165 164,-187 280,-187 280,-165 164,-165"/>
<text text-anchor="start" x="184" y="-173.2" font-family="Helvetica,sans-Serif" font-size="11.00">plate_number</text>
<polygon fill="none" stroke="black" points="164,-143 164,-165 280,-165 280,-143 164,-143"/>
<text text-anchor="start" x="184" y="-151.2" font-family="Helvetica,sans-Serif" font-size="11.00">test</text>
<polygon fill="#ffffff" stroke="transparent" points="164,-121 164,-143 280,-143 280,-121 164,-121"/>
<polygon fill="none" stroke="black" points="164,-121 164,-143 280,-143 280,-121 164,-121"/>
<image xlink:href="../../images/foreignKeys.png" width="11px" height="12px" preserveAspectRatio="xMinYMin meet" x="169" y="-138"/>
<text text-anchor="start" x="184" y="-129.2" font-family="Helvetica,sans-Serif" font-size="11.00">attribute_id</text>
<polygon fill="none" stroke="black" points="164,-99 164,-121 280,-121 280,-99 164,-99"/>
<text text-anchor="start" x="184" y="-107.2" font-family="Helvetica,sans-Serif" font-size="11.00">created_at</text>
<polygon fill="none" stroke="black" points="164,-77 164,-99 280,-99 280,-77 164,-77"/>
<text text-anchor="start" x="184" y="-85.2" font-family="Helvetica,sans-Serif" font-size="11.00">updated_at</text>
<polygon fill="none" stroke="black" points="164,-55 164,-77 280,-77 280,-55 164,-55"/>
<text text-anchor="start" x="184" y="-63.2" font-family="Helvetica,sans-Serif" font-size="11.00">deleted_at</text>
<polygon fill="#ffffff" stroke="transparent" points="164,-37 164,-55 206,-55 206,-37 164,-37"/>
<polygon fill="none" stroke="black" points="164,-37 164,-55 206,-55 206,-37 164,-37"/>
<text text-anchor="start" x="167" y="-43.2" font-family="Helvetica,sans-Serif" font-size="11.00">&lt; 1</text>
<polygon fill="#ffffff" stroke="transparent" points="206,-37 206,-55 257,-55 257,-37 206,-37"/>
<polygon fill="none" stroke="black" points="206,-37 206,-55 257,-55 257,-37 206,-37"/>
<text text-anchor="start" x="217" y="-43.2" font-family="Helvetica,sans-Serif" font-size="11.00">0 rows</text>
<polygon fill="#ffffff" stroke="transparent" points="257,-37 257,-55 280,-55 280,-37 257,-37"/>
<polygon fill="none" stroke="black" points="257,-37 257,-55 280,-55 280,-37 257,-37"/>
<text text-anchor="start" x="269" y="-43.2" font-family="Helvetica,sans-Serif" font-size="11.00"> &#160;</text>
</a>
</g>
</g>
<!-- user&#45;&gt;attribute -->
<g id="edge1" class="edge">
<title>user:w&#45;&gt;attribute:e</title>
<path fill="none" stroke="black" d="M148.55,-132C138.2,-132 131.35,-132 116.5,-132"/>
<polygon fill="black" stroke="black" points="155,-132 163,-135.6 159,-132 163,-132 163,-132 163,-132 159,-132 163,-128.4 155,-132 155,-132"/>
<ellipse fill="none" stroke="black" cx="151.8" cy="-132" rx="3.2" ry="3.2"/>
</g>
</g>
</svg>
