<?xml version="1.0" encoding="UTF-8" standalone="no"?>
<!DOCTYPE svg PUBLIC "-//W3C//DTD SVG 1.1//EN"
 "http://www.w3.org/Graphics/SVG/1.1/DTD/svg11.dtd">
<!-- Generated by graphviz version 12.0.0 (20240704.0754)
 -->
<!-- Title: largeRelationshipsDiagram Pages: 1 -->
<svg width="261pt" height="353pt"
 viewBox="0.00 0.00 261.00 353.00" xmlns="http://www.w3.org/2000/svg" xmlns:xlink="http://www.w3.org/1999/xlink">
<g id="graph0" class="graph" transform="scale(1 1) rotate(0) translate(4 349)">
<title>largeRelationshipsDiagram</title>
<polygon fill="#ffffff" stroke="none" points="-4,4 -4,-349 257,-349 257,4 -4,4"/>
<text text-anchor="middle" x="71.38" y="-5.55" font-family="Helvetica,sans-Serif" font-size="11.00">Generated by SchemaSpy</text>
<!-- attribute -->
<g id="node1" class="node">
<title>attribute</title>
<g id="a_node1"><a xlink:href="../../tables/attribute.html" xlink:title="attribute" target="_top">
<polygon fill="#ffffff" stroke="none" points="8,-37 8,-165 95,-165 95,-37 8,-37"/>
<polygon fill="#f5f5f5" stroke="none" points="8,-143 8,-165 95,-165 95,-143 8,-143"/>
<polygon fill="none" stroke="black" points="8,-143 8,-165 95,-165 95,-143 8,-143"/>
<text text-anchor="start" x="12.88" y="-150.55" font-family="Helvetica,sans-Serif" font-weight="bold" font-size="11.00">attribute</text>
<text text-anchor="start" x="61" y="-149.55" font-family="Helvetica,sans-Serif" font-size="11.00">[table]</text>
<polygon fill="none" stroke="black" points="8,-121 8,-143 95,-143 95,-121 8,-121"/>
<image xlink:href="../../images/primaryKeys.png" width="11px" height="12px" preserveAspectRatio="xMinYMin meet" x="13" y="-138"/>
<text text-anchor="start" x="29" y="-127.55" font-family="Helvetica,sans-Serif" font-size="11.00">id</text>
<polygon fill="#ffffff" stroke="none" points="8,-99 8,-121 95,-121 95,-99 8,-99"/>
<polygon fill="none" stroke="black" points="8,-99 8,-121 95,-121 95,-99 8,-99"/>
<text text-anchor="start" x="29" y="-105.55" font-family="Helvetica,sans-Serif" font-size="11.00">name</text>
<polygon fill="none" stroke="black" points="8,-77 8,-99 95,-99 95,-77 8,-77"/>
<text text-anchor="start" x="29" y="-83.55" font-family="Helvetica,sans-Serif" font-size="11.00">created_at</text>
<polygon fill="none" stroke="black" points="8,-55 8,-77 95,-77 95,-55 8,-55"/>
<text text-anchor="start" x="29" y="-61.55" font-family="Helvetica,sans-Serif" font-size="11.00">updated_at</text>
<polygon fill="#ffffff" stroke="none" points="8,-37 8,-55 28,-55 28,-37 8,-37"/>
<polygon fill="none" stroke="black" points="8,-37 8,-55 28,-55 28,-37 8,-37"/>
<text text-anchor="start" x="11" y="-41.55" font-family="Helvetica,sans-Serif" font-size="11.00"> &#160;</text>
<polygon fill="#ffffff" stroke="none" points="28,-37 28,-55 70,-55 70,-37 28,-37"/>
<polygon fill="none" stroke="black" points="28,-37 28,-55 70,-55 70,-37 28,-37"/>
<text text-anchor="start" x="34.75" y="-41.55" font-family="Helvetica,sans-Serif" font-size="11.00">0 rows</text>
<polygon fill="#ffffff" stroke="none" points="70,-37 70,-55 95,-55 95,-37 70,-37"/>
<polygon fill="none" stroke="black" points="70,-37 70,-55 95,-55 95,-37 70,-37"/>
<text text-anchor="start" x="76.25" y="-41.55" font-family="Helvetica,sans-Serif" font-size="11.00">1 &gt;</text>
</a>
</g>
</g>
<!-- user -->
<g id="node2" class="node">
<title>user</title>
<g id="a_node2"><a xlink:href="../../tables/user.html" xlink:title="user" target="_top">
<polygon fill="#ffffff" stroke="none" points="144,-37 144,-341 245,-341 245,-37 144,-37"/>
<polygon fill="#f5f5f5" stroke="none" points="144,-319 144,-341 245,-341 245,-319 144,-319"/>
<polygon fill="none" stroke="black" points="144,-319 144,-341 245,-341 245,-319 144,-319"/>
<text text-anchor="start" x="147.88" y="-326.55" font-family="Helvetica,sans-Serif" font-weight="bold" font-size="11.00">user</text>
<text text-anchor="start" x="210.75" y="-325.55" font-family="Helvetica,sans-Serif" font-size="11.00">[table]</text>
<polygon fill="none" stroke="black" points="144,-297 144,-319 245,-319 245,-297 144,-297"/>
<image xlink:href="../../images/primaryKeys.png" width="11px" height="12px" preserveAspectRatio="xMinYMin meet" x="149" y="-314"/>
<text text-anchor="start" x="164" y="-303.55" font-family="Helvetica,sans-Serif" font-size="11.00">id</text>
<polygon fill="#ffffff" stroke="none" points="144,-275 144,-297 245,-297 245,-275 144,-275"/>
<polygon fill="none" stroke="black" points="144,-275 144,-297 245,-297 245,-275 144,-275"/>
<text text-anchor="start" x="164" y="-281.55" font-family="Helvetica,sans-Serif" font-size="11.00">name</text>
<polygon fill="#ffffff" stroke="none" points="144,-253 144,-275 245,-275 245,-253 144,-253"/>
<polygon fill="none" stroke="black" points="144,-253 144,-275 245,-275 245,-253 144,-253"/>
<text text-anchor="start" x="164" y="-259.55" font-family="Helvetica,sans-Serif" font-size="11.00">email</text>
<polygon fill="none" stroke="black" points="144,-231 144,-253 245,-253 245,-231 144,-231"/>
<text text-anchor="start" x="164" y="-237.55" font-family="Helvetica,sans-Serif" font-size="11.00">email_verified</text>
<polygon fill="none" stroke="black" points="144,-209 144,-231 245,-231 245,-209 144,-209"/>
<text text-anchor="start" x="164" y="-215.55" font-family="Helvetica,sans-Serif" font-size="11.00">password</text>
<polygon fill="none" stroke="black" points="144,-187 144,-209 245,-209 245,-187 144,-187"/>
<text text-anchor="start" x="164" y="-193.55" font-family="Helvetica,sans-Serif" font-size="11.00">birthday</text>
<polygon fill="none" stroke="black" points="144,-165 144,-187 245,-187 245,-165 144,-165"/>
<text text-anchor="start" x="164" y="-171.55" font-family="Helvetica,sans-Serif" font-size="11.00">plate_number</text>
<polygon fill="none" stroke="black" points="144,-143 144,-165 245,-165 245,-143 144,-143"/>
<text text-anchor="start" x="164" y="-149.55" font-family="Helvetica,sans-Serif" font-size="11.00">test</text>
<polygon fill="#ffffff" stroke="none" points="144,-121 144,-143 245,-143 245,-121 144,-121"/>
<polygon fill="none" stroke="black" points="144,-121 144,-143 245,-143 245,-121 144,-121"/>
<image xlink:href="../../images/foreignKeys.png" width="11px" height="12px" preserveAspectRatio="xMinYMin meet" x="149" y="-138"/>
<text text-anchor="start" x="164" y="-127.55" font-family="Helvetica,sans-Serif" font-size="11.00">attribute_id</text>
<polygon fill="none" stroke="black" points="144,-99 144,-121 245,-121 245,-99 144,-99"/>
<text text-anchor="start" x="164" y="-105.55" font-family="Helvetica,sans-Serif" font-size="11.00">created_at</text>
<polygon fill="none" stroke="black" points="144,-77 144,-99 245,-99 245,-77 144,-77"/>
<text text-anchor="start" x="164" y="-83.55" font-family="Helvetica,sans-Serif" font-size="11.00">updated_at</text>
<polygon fill="none" stroke="black" points="144,-55 144,-77 245,-77 245,-55 144,-55"/>
<text text-anchor="start" x="164" y="-61.55" font-family="Helvetica,sans-Serif" font-size="11.00">deleted_at</text>
<polygon fill="#ffffff" stroke="none" points="144,-37 144,-55 180,-55 180,-37 144,-37"/>
<polygon fill="none" stroke="black" points="144,-37 144,-55 180,-55 180,-37 144,-37"/>
<text text-anchor="start" x="147" y="-41.55" font-family="Helvetica,sans-Serif" font-size="11.00">&lt; 1</text>
<polygon fill="#ffffff" stroke="none" points="180,-37 180,-55 225,-55 225,-37 180,-37"/>
<polygon fill="none" stroke="black" points="180,-37 180,-55 225,-55 225,-37 180,-37"/>
<text text-anchor="start" x="189.75" y="-41.55" font-family="Helvetica,sans-Serif" font-size="11.00">0 rows</text>
<polygon fill="#ffffff" stroke="none" points="225,-37 225,-55 245,-55 245,-37 225,-37"/>
<polygon fill="none" stroke="black" points="225,-37 225,-55 245,-55 245,-37 225,-37"/>
<text text-anchor="start" x="236" y="-41.55" font-family="Helvetica,sans-Serif" font-size="11.00"> &#160;</text>
</a>
</g>
</g>
<!-- user&#45;&gt;attribute -->
<g id="edge1" class="edge">
<title>user:w&#45;&gt;attribute:e</title>
<path fill="none" stroke="black" d="M127.38,-132C117.47,-132 110.52,-132 96,-132"/>
<polygon fill="black" stroke="black" points="134.67,-132 142.67,-135.6 139,-132 142.33,-132 142.33,-132 142.33,-132 139,-132 142.67,-128.4 134.67,-132"/>
<ellipse fill="none" stroke="black" cx="129.75" cy="-132" rx="3.2" ry="3.2"/>
</g>
</g>
</svg>
