<?xml version="1.0" encoding="UTF-8" standalone="no"?>
<!DOCTYPE svg PUBLIC "-//W3C//DTD SVG 1.1//EN"
 "http://www.w3.org/Graphics/SVG/1.1/DTD/svg11.dtd">
<!-- Generated by graphviz version 2.40.1 (20161225.0304)
 -->
<!-- Title: tbls_demo_box Pages: 1 -->
<svg width="533pt" height="736pt"
 viewBox="0.00 0.00 532.50 736.00" xmlns="http://www.w3.org/2000/svg" xmlns:xlink="http://www.w3.org/1999/xlink">
<g id="graph0" class="graph" transform="scale(1 1) rotate(0) translate(4 732)">
<title>tbls_demo_box</title>
<polygon fill="#ffffff" stroke="transparent" points="-4,4 -4,-732 528.5,-732 528.5,4 -4,4"/>
<!-- attribute -->
<g id="node1" class="node">
<title>attribute</title>
<polygon fill="#efefef" stroke="transparent" points="47.5,-162.5 47.5,-197.5 253.5,-197.5 253.5,-162.5 47.5,-162.5"/>
<polygon fill="none" stroke="#000000" points="47.5,-162.5 47.5,-197.5 253.5,-197.5 253.5,-162.5 47.5,-162.5"/>
<text text-anchor="start" x="54.2071" y="-175.3" font-family="Arial Bold" font-size="18.00" fill="#000000">attribute</text>
<text text-anchor="start" x="119.2249" y="-175.3" font-family="Arial" font-size="14.00" fill="#000000">    </text>
<text text-anchor="start" x="153.4297" y="-175.3" font-family="Arial" font-size="14.00" fill="#666666">[BASE TABLE]</text>
<polygon fill="none" stroke="#000000" points="47.5,-132.5 47.5,-162.5 253.5,-162.5 253.5,-132.5 47.5,-132.5"/>
<text text-anchor="start" x="54.5" y="-143.9" font-family="Arial" font-size="14.00" fill="#000000">id    </text>
<text text-anchor="start" x="99.594" y="-143.9" font-family="Arial" font-size="14.00" fill="#666666">[bigint]</text>
<polygon fill="none" stroke="#000000" points="47.5,-102.5 47.5,-132.5 253.5,-132.5 253.5,-102.5 47.5,-102.5"/>
<text text-anchor="start" x="54.5" y="-113.9" font-family="Arial" font-size="14.00" fill="#000000">name    </text>
<text text-anchor="start" x="123.7132" y="-113.9" font-family="Arial" font-size="14.00" fill="#666666">[varchar(50)]</text>
<polygon fill="none" stroke="#000000" points="47.5,-72.5 47.5,-102.5 253.5,-102.5 253.5,-72.5 47.5,-72.5"/>
<text text-anchor="start" x="54.5" y="-83.9" font-family="Arial" font-size="14.00" fill="#000000">created_at    </text>
<text text-anchor="start" x="154.8422" y="-83.9" font-family="Arial" font-size="14.00" fill="#666666">[timestamp]</text>
<polygon fill="none" stroke="#000000" points="47.5,-42.5 47.5,-72.5 253.5,-72.5 253.5,-42.5 47.5,-42.5"/>
<text text-anchor="start" x="54.5" y="-53.9" font-family="Arial" font-size="14.00" fill="#000000">updated_at    </text>
<text text-anchor="start" x="158.7468" y="-53.9" font-family="Arial" font-size="14.00" fill="#666666">[timestamp]</text>
</g>
<!-- user -->
<g id="node2" class="node">
<title>user</title>
<polygon fill="#efefef" stroke="transparent" points="43.5,-649.5 43.5,-684.5 256.5,-684.5 256.5,-649.5 43.5,-649.5"/>
<polygon fill="none" stroke="#000000" points="43.5,-649.5 43.5,-684.5 256.5,-684.5 256.5,-649.5 43.5,-649.5"/>
<text text-anchor="start" x="68.7137" y="-662.3" font-family="Arial Bold" font-size="18.00" fill="#000000">user</text>
<text text-anchor="start" x="103.7183" y="-662.3" font-family="Arial" font-size="14.00" fill="#000000">    </text>
<text text-anchor="start" x="137.9231" y="-662.3" font-family="Arial" font-size="14.00" fill="#666666">[BASE TABLE]</text>
<polygon fill="none" stroke="#000000" points="43.5,-619.5 43.5,-649.5 256.5,-649.5 256.5,-619.5 43.5,-619.5"/>
<text text-anchor="start" x="50.5" y="-630.9" font-family="Arial" font-size="14.00" fill="#000000">id    </text>
<text text-anchor="start" x="95.594" y="-630.9" font-family="Arial" font-size="14.00" fill="#666666">[bigint]</text>
<polygon fill="none" stroke="#000000" points="43.5,-589.5 43.5,-619.5 256.5,-619.5 256.5,-589.5 43.5,-589.5"/>
<text text-anchor="start" x="50.5" y="-600.9" font-family="Arial" font-size="14.00" fill="#000000">name    </text>
<text text-anchor="start" x="119.7132" y="-600.9" font-family="Arial" font-size="14.00" fill="#666666">[varchar(50)]</text>
<polygon fill="none" stroke="#000000" points="43.5,-559.5 43.5,-589.5 256.5,-589.5 256.5,-559.5 43.5,-559.5"/>
<text text-anchor="start" x="50.5" y="-570.9" font-family="Arial" font-size="14.00" fill="#000000">email    </text>
<text text-anchor="start" x="118.1438" y="-570.9" font-family="Arial" font-size="14.00" fill="#666666">[varchar(50)]</text>
<polygon fill="none" stroke="#000000" points="43.5,-529.5 43.5,-559.5 256.5,-559.5 256.5,-529.5 43.5,-529.5"/>
<text text-anchor="start" x="50.0624" y="-540.9" font-family="Arial" font-size="14.00" fill="#000000">email_verified    </text>
<text text-anchor="start" x="170.601" y="-540.9" font-family="Arial" font-size="14.00" fill="#666666">[varchar(50)]</text>
<polygon fill="none" stroke="#000000" points="43.5,-499.5 43.5,-529.5 256.5,-529.5 256.5,-499.5 43.5,-499.5"/>
<text text-anchor="start" x="50.5" y="-510.9" font-family="Arial" font-size="14.00" fill="#000000">password    </text>
<text text-anchor="start" x="144.6024" y="-510.9" font-family="Arial" font-size="14.00" fill="#666666">[varchar(255)]</text>
<polygon fill="none" stroke="#000000" points="43.5,-469.5 43.5,-499.5 256.5,-499.5 256.5,-469.5 43.5,-469.5"/>
<text text-anchor="start" x="50.5" y="-480.9" font-family="Arial" font-size="14.00" fill="#000000">birthday    </text>
<text text-anchor="start" x="134.493" y="-480.9" font-family="Arial" font-size="14.00" fill="#666666">[date]</text>
<polygon fill="none" stroke="#000000" points="43.5,-439.5 43.5,-469.5 256.5,-469.5 256.5,-439.5 43.5,-439.5"/>
<text text-anchor="start" x="50.4397" y="-450.9" font-family="Arial" font-size="14.00" fill="#000000">plate_number    </text>
<text text-anchor="start" x="170.2237" y="-450.9" font-family="Arial" font-size="14.00" fill="#666666">[varchar(50)]</text>
<polygon fill="none" stroke="#000000" points="43.5,-409.5 43.5,-439.5 256.5,-439.5 256.5,-409.5 43.5,-409.5"/>
<text text-anchor="start" x="50.5" y="-420.9" font-family="Arial" font-size="14.00" fill="#000000">attribute_id    </text>
<text text-anchor="start" x="153.946" y="-420.9" font-family="Arial" font-size="14.00" fill="#666666">[bigint]</text>
<polygon fill="none" stroke="#000000" points="43.5,-379.5 43.5,-409.5 256.5,-409.5 256.5,-379.5 43.5,-379.5"/>
<text text-anchor="start" x="50.5" y="-390.9" font-family="Arial" font-size="14.00" fill="#000000">created_at    </text>
<text text-anchor="start" x="150.8422" y="-390.9" font-family="Arial" font-size="14.00" fill="#666666">[timestamp]</text>
<polygon fill="none" stroke="#000000" points="43.5,-349.5 43.5,-379.5 256.5,-379.5 256.5,-349.5 43.5,-349.5"/>
<text text-anchor="start" x="50.5" y="-360.9" font-family="Arial" font-size="14.00" fill="#000000">updated_at    </text>
<text text-anchor="start" x="154.7468" y="-360.9" font-family="Arial" font-size="14.00" fill="#666666">[timestamp]</text>
<polygon fill="none" stroke="#000000" points="43.5,-319.5 43.5,-349.5 256.5,-349.5 256.5,-319.5 43.5,-319.5"/>
<text text-anchor="start" x="50.5" y="-330.9" font-family="Arial" font-size="14.00" fill="#000000">deleted_at    </text>
<text text-anchor="start" x="150.0708" y="-330.9" font-family="Arial" font-size="14.00" fill="#666666">[timestamp]</text>
</g>
<!-- user&#45;&gt;attribute -->
<g id="edge1" class="edge">
<title>user:attribute_id&#45;&gt;attribute:id</title>
<path fill="none" stroke="#000000" d="M266.4693,-423.6501C319.4486,-413.992 296.4277,-324.3932 256.5,-277 195.7701,-204.9151 108.2299,-313.0849 47.5,-241 20.7257,-209.2195 5.9444,-147.5 47.5,-147.5"/>
<polygon fill="#000000" stroke="#000000" points="266.4639,-423.6504 256.1177,-420.0163 261.4819,-424.0752 256.5,-424.5 256.5,-424.5 256.5,-424.5 261.4819,-424.0752 256.8823,-428.9837 266.4639,-423.6504 266.4639,-423.6504"/>
<text text-anchor="start" x="263.271" y="-434.5" font-family="Arial" font-size="10.00" fill="#000000">FOREIGN KEY (attribute_id) REFERENCES attribute (id)</text>
</g>
</g>
</svg>
